<svg width="20" height="20" viewBox="0 0 20 20" fill="none" xmlns="http://www.w3.org/2000/svg">
<path d="M19.5812 5.0397C19.468 4.64607 19.2474 4.2897 18.943 4.00847C18.6299 3.71859 18.2462 3.51123 17.8281 3.40596C16.2633 3.00403 9.99417 3.00403 9.99417 3.00403C7.38063 2.97505 4.76773 3.1025 2.17022 3.38566C1.7521 3.49871 1.36913 3.7107 1.05537 4.00278C0.74708 4.29185 0.523777 4.64832 0.407126 5.03889C0.126908 6.51002 -0.00924109 8.00377 0.00051425 9.5C-0.0094844 10.9949 0.126331 12.4881 0.407126 13.9611C0.521277 14.35 0.743748 14.7049 1.05287 14.9915C1.362 15.2782 1.74695 15.4852 2.17022 15.5948C3.75584 15.996 9.99417 15.996 9.99417 15.996C12.611 16.025 15.2273 15.8975 17.8281 15.6143C18.2462 15.5091 18.6299 15.3017 18.943 15.0118C19.2473 14.7306 19.4676 14.3742 19.5804 13.9806C19.8679 12.51 20.0077 11.0157 19.9978 9.51867C20.0194 8.01534 19.8798 6.51393 19.5812 5.03889V5.0397ZM8.0011 12.2803V6.72053L13.2171 9.50081L8.0011 12.2803Z" fill="#FF0000"/>
</svg>
