<svg width="20" height="20" viewBox="0 0 20 20" fill="none" xmlns="http://www.w3.org/2000/svg">
<path d="M9.99785 7.3322C8.52888 7.3322 7.3301 8.53101 7.3301 10C7.3301 11.469 8.52888 12.6678 9.99785 12.6678C11.4668 12.6678 12.6656 11.469 12.6656 10C12.6656 8.53101 11.4668 7.3322 9.99785 7.3322ZM17.9991 10C17.9991 8.89525 18.0091 7.80051 17.9471 6.69777C17.885 5.4169 17.5928 4.28014 16.6562 3.3435C15.7176 2.40487 14.5829 2.11467 13.302 2.05263C12.1973 1.99059 11.1026 2.0006 9.99985 2.0006C8.89512 2.0006 7.80041 1.99059 6.69768 2.05263C5.41684 2.11467 4.28009 2.40687 3.34348 3.3435C2.40486 4.28214 2.11467 5.4169 2.05263 6.69777C1.99059 7.80252 2.0006 8.89725 2.0006 10C2.0006 11.1027 1.99059 12.1995 2.05263 13.3022C2.11467 14.5831 2.40686 15.7199 3.34348 16.6565C4.28209 17.5951 5.41684 17.8853 6.69768 17.9474C7.80241 18.0094 8.89713 17.9994 9.99985 17.9994C11.1046 17.9994 12.1993 18.0094 13.302 17.9474C14.5829 17.8853 15.7196 17.5931 16.6562 16.6565C17.5948 15.7179 17.885 14.5831 17.9471 13.3022C18.0111 12.1995 17.9991 11.1047 17.9991 10ZM9.99785 14.1048C7.72636 14.1048 5.89315 12.2715 5.89315 10C5.89315 7.72847 7.72636 5.89523 9.99785 5.89523C12.2693 5.89523 14.1025 7.72847 14.1025 10C14.1025 12.2715 12.2693 14.1048 9.99785 14.1048ZM14.2707 6.68576C13.7403 6.68576 13.312 6.25747 13.312 5.72711C13.312 5.19675 13.7403 4.76847 14.2707 4.76847C14.801 4.76847 15.2293 5.19675 15.2293 5.72711C15.2294 5.85305 15.2048 5.97778 15.1566 6.09416C15.1085 6.21054 15.0379 6.31628 14.9489 6.40533C14.8598 6.49438 14.7541 6.56499 14.6377 6.61311C14.5213 6.66123 14.3966 6.68592 14.2707 6.68576Z" fill="url(#paint0_linear_61_2490)"/>
<defs>
<linearGradient id="paint0_linear_61_2490" x1="19.5" y1="2" x2="7" y2="20" gradientUnits="userSpaceOnUse">
<stop stop-color="#595ACC"/>
<stop offset="0.320833" stop-color="#C4368C"/>
<stop offset="0.701042" stop-color="#E95450"/>
<stop offset="1" stop-color="#FBC66A"/>
</linearGradient>
</defs>
</svg>
