<svg width="88" height="17" viewBox="0 0 88 17" fill="none" xmlns="http://www.w3.org/2000/svg">
<path d="M8 0.5L9.79611 6.02786H15.6085L10.9062 9.44427L12.7023 14.9721L8 11.5557L3.29772 14.9721L5.09383 9.44427L0.391548 6.02786H6.20389L8 0.5Z" fill="#F1BD25"/>
<path d="M26 0.5L27.7961 6.02786H33.6085L28.9062 9.44427L30.7023 14.9721L26 11.5557L21.2977 14.9721L23.0938 9.44427L18.3915 6.02786H24.2039L26 0.5Z" fill="#F1BD25"/>
<path d="M44 0.5L45.7961 6.02786H51.6085L46.9062 9.44427L48.7023 14.9721L44 11.5557L39.2977 14.9721L41.0938 9.44427L36.3915 6.02786H42.2039L44 0.5Z" fill="#F1BD25"/>
<path d="M62 2.11803L63.3206 6.18237L63.4328 6.52786H63.7961H68.0696L64.6123 9.03976L64.3184 9.25329L64.4306 9.59878L65.7512 13.6631L62.2939 11.1512L62 10.9377L61.7061 11.1512L58.2488 13.6631L59.5694 9.59878L59.6816 9.25329L59.3877 9.03976L55.9304 6.52786H60.2039H60.5672L60.6794 6.18237L62 2.11803Z" stroke="#333333"/>
<path d="M80 2.11803L81.3206 6.18237L81.4328 6.52786H81.7961H86.0696L82.6123 9.03976L82.3184 9.25329L82.4306 9.59878L83.7512 13.6631L80.2939 11.1512L80 10.9377L79.7061 11.1512L76.2488 13.6631L77.5694 9.59878L77.6816 9.25329L77.3877 9.03976L73.9304 6.52786H78.2039H78.5672L78.6794 6.18237L80 2.11803Z" stroke="#333333"/>
</svg>
