<svg width="20" height="20" viewBox="0 0 20 20" fill="none" xmlns="http://www.w3.org/2000/svg">
<path d="M14.9998 3.73333C13.6737 2.40725 11.8751 1.66226 9.99978 1.66226C8.12441 1.66226 6.32586 2.40725 4.99978 3.73333C3.6737 5.05941 2.92871 6.85797 2.92871 8.73333C2.92871 10.6087 3.6737 12.4072 4.99978 13.7333L9.39145 18.1333C9.46891 18.2114 9.56108 18.2734 9.66263 18.3157C9.76418 18.358 9.8731 18.3798 9.98311 18.3798C10.0931 18.3798 10.202 18.358 10.3036 18.3157C10.4051 18.2734 10.4973 18.2114 10.5748 18.1333L14.9998 13.6917C16.3203 12.3711 17.0622 10.58 17.0622 8.7125C17.0622 6.84495 16.3203 5.05389 14.9998 3.73333ZM13.8081 12.5L9.99978 16.325L6.19145 12.5C5.43907 11.7469 4.92684 10.7877 4.71952 9.74357C4.51221 8.69944 4.6191 7.61729 5.0267 6.6339C5.4343 5.65051 6.12429 4.81004 7.00947 4.21873C7.89465 3.62742 8.93527 3.31181 9.99978 3.31181C11.0643 3.31181 12.1049 3.62742 12.9901 4.21873C13.8753 4.81004 14.5653 5.65051 14.9729 6.6339C15.3805 7.61729 15.4874 8.69944 15.28 9.74357C15.0727 10.7877 14.5605 11.7469 13.8081 12.5ZM7.49978 6.175C6.82704 6.84981 6.44927 7.7638 6.44927 8.71666C6.44927 9.66952 6.82704 10.5835 7.49978 11.2583C7.99958 11.759 8.6361 12.1009 9.32949 12.2412C10.0229 12.3814 10.7422 12.3138 11.3973 12.0468C12.0524 11.7798 12.6141 11.3252 13.0118 10.7402C13.4096 10.1552 13.6257 9.46572 13.6331 8.75833C13.6369 8.286 13.5459 7.81771 13.3655 7.38115C13.1852 6.94459 12.9191 6.54863 12.5831 6.21666C12.2528 5.87881 11.859 5.60961 11.4243 5.42455C10.9896 5.23949 10.5226 5.14223 10.0501 5.13835C9.57766 5.13448 9.10911 5.22408 8.67142 5.40199C8.23373 5.5799 7.83555 5.84261 7.49978 6.175ZM11.4081 10.075C11.0923 10.3956 10.675 10.5966 10.2274 10.6435C9.77982 10.6905 9.32983 10.5805 8.95437 10.3324C8.5789 10.0843 8.30128 9.71353 8.16895 9.2834C8.03663 8.85327 8.05782 8.39053 8.22891 7.97429C8.4 7.55806 8.71036 7.21418 9.10693 7.00144C9.5035 6.78871 9.96166 6.72034 10.4031 6.80801C10.8445 6.89568 11.2417 7.13396 11.5269 7.48211C11.812 7.83025 11.9674 8.26664 11.9664 8.71666C11.9543 9.23105 11.7385 9.7196 11.3664 10.075H11.4081Z" fill="black"/>
</svg>
