<svg width="20" height="20" viewBox="0 0 20 20" fill="none" xmlns="http://www.w3.org/2000/svg">
<path fill-rule="evenodd" clip-rule="evenodd" d="M2.50814 4.86507C2.50814 4.40483 2.88123 4.03174 3.34147 4.03174H16.6667C17.1269 4.03174 17.5 4.40483 17.5 4.86507V14.3019C17.5 15.2224 16.7538 15.9686 15.8333 15.9686H4.16667C3.24619 15.9686 2.5 15.2224 2.5 14.3019V5.13525C2.5 5.09557 2.50277 5.05654 2.50814 5.01833V4.86507ZM4.16667 6.7182V14.3019H15.8333V6.71849L11.7679 10.7839C10.7916 11.7602 9.20869 11.7602 8.23238 10.7839L4.16667 6.7182ZM5.47694 5.67145H14.5233L10.5894 9.6054C10.264 9.93084 9.73632 9.93084 9.41089 9.6054L5.47694 5.67145Z" fill="#333333"/>
</svg>
