<svg width="20" height="20" viewBox="0 0 20 20" fill="none" xmlns="http://www.w3.org/2000/svg">
<path fill-rule="evenodd" clip-rule="evenodd" d="M2.50814 4.86492C2.50814 4.40468 2.88123 4.03159 3.34147 4.03159H16.6667C17.1269 4.03159 17.5 4.40468 17.5 4.86492V14.3018C17.5 15.2222 16.7538 15.9684 15.8333 15.9684H4.16667C3.24619 15.9684 2.5 15.2222 2.5 14.3018V5.1351C2.5 5.09542 2.50277 5.05638 2.50814 5.01818V4.86492ZM4.16667 6.71805V14.3018H15.8333V6.71833L11.7679 10.7838C10.7916 11.7601 9.20869 11.7601 8.23238 10.7838L4.16667 6.71805ZM5.47694 5.6713H14.5233L10.5894 9.60525C10.264 9.93068 9.73632 9.93068 9.41089 9.60525L5.47694 5.6713Z" fill="white"/>
</svg>
