<svg width="42" height="43" viewBox="0 0 42 43" fill="none" xmlns="http://www.w3.org/2000/svg">
<path d="M27.7876 8.76672H6.7876V12.2667H27.7876V8.76672Z" fill="#1876F2"/>
<path d="M27.7876 15.7667H6.7876V19.2667H27.7876V15.7667Z" fill="#1876F2"/>
<path d="M6.7876 22.7667H20.7876V26.2667H6.7876V22.7667Z" fill="#1876F2"/>
<path fill-rule="evenodd" clip-rule="evenodd" d="M24.0752 22.5544C22.025 24.6047 22.025 27.9288 24.0752 29.979C25.6916 31.5954 28.0997 31.9375 30.0512 31.0052L32.7373 33.6913L35.2122 31.2165L32.526 28.5304C33.4583 26.5789 33.1162 24.1708 31.4998 22.5544C29.4496 20.5042 26.1255 20.5042 24.0752 22.5544ZM26.5501 27.5042C27.2335 28.1876 28.3416 28.1876 29.025 27.5042C29.7084 26.8207 29.7084 25.7127 29.025 25.0293C28.3416 24.3459 27.2335 24.3459 26.5501 25.0293C25.8667 25.7127 25.8667 26.8207 26.5501 27.5042Z" fill="#1876F2"/>
</svg>
