<svg width="20" height="20" viewBox="0 0 20 20" fill="none" xmlns="http://www.w3.org/2000/svg">
<path d="M5.18724 4.00924C4.8618 3.68381 4.33416 3.68381 4.00873 4.00924C3.68329 4.33468 3.68329 4.86232 4.00873 5.18776L8.82101 10L4.00878 14.8123C3.68334 15.1377 3.68334 15.6653 4.00878 15.9908C4.33421 16.3162 4.86185 16.3162 5.18729 15.9908L9.99952 11.1785L14.8117 15.9908C15.1372 16.3162 15.6648 16.3162 15.9903 15.9908C16.3157 15.6653 16.3157 15.1377 15.9903 14.8123L11.178 10L15.9903 5.18776C16.3157 4.86232 16.3157 4.33468 15.9903 4.00924C15.6649 3.68381 15.1372 3.68381 14.8118 4.00924L9.99952 8.82152L5.18724 4.00924Z" fill="#FF0000"/>
</svg>
