<svg width="42" height="42" viewBox="0 0 42 42" fill="none" xmlns="http://www.w3.org/2000/svg">
<path d="M20.7776 5.80598C21.5518 5.28981 22.4592 5.00986 23.3895 5.0002C24.3198 4.99053 25.2329 5.25157 26.0176 5.75155L32.664 9.98415H35.4C35.8243 9.98415 36.2313 10.1528 36.5314 10.453C36.8314 10.7532 37 11.1604 37 11.585V25.9925C37 26.4171 36.8314 26.8242 36.5314 27.1244C36.2313 27.4247 35.8243 27.5933 35.4 27.5933H32.968C33.0193 28.3728 32.8545 29.1514 32.4917 29.8432C32.1289 30.5349 31.5823 31.113 30.912 31.5138L22.7632 36.4059C22.2625 36.7062 21.6892 36.8638 21.1054 36.8616C20.5216 36.8593 19.9496 36.6973 19.4512 36.3931C18.8899 36.8893 18.1723 37.1728 17.4236 37.1942C16.6748 37.2155 15.9423 36.9734 15.3536 36.51L7.1296 30.0442C6.55497 29.5927 6.15198 28.9581 5.98754 28.2459C5.8231 27.5336 5.9071 26.7865 6.2256 26.1286C5.84353 25.8288 5.53463 25.4461 5.32229 25.0093C5.10995 24.5724 4.99974 24.093 5 23.6072V11.585C5 11.1604 5.16857 10.7532 5.46863 10.453C5.76869 10.1528 6.17565 9.98415 6.6 9.98415H14.5152L20.7776 5.80598ZM8.4768 23.825L9.584 22.8565C10.5302 22.0283 11.7634 21.6047 13.0185 21.6765C14.2735 21.7484 15.4504 22.31 16.296 23.2407L20.6192 27.9983C21.2972 28.7444 21.7232 29.6851 21.8369 30.687C21.9506 31.6889 21.7463 32.7012 21.2528 33.5804L29.2656 28.7699C29.4755 28.6441 29.6349 28.4489 29.7164 28.218C29.7979 27.9872 29.7963 27.7351 29.712 27.5053L22.6288 17.5833C22.4348 17.3114 22.1607 17.107 21.8448 16.9988C21.5289 16.8905 21.1871 16.8839 20.8672 16.9798L16.8896 18.1724C16.0595 18.4215 15.1775 18.4411 14.3372 18.2292C13.4969 18.0172 12.7296 17.5816 12.1168 16.9686L11.648 16.5011C11.2223 16.0761 10.9252 15.5395 10.7907 14.953C10.6563 14.3665 10.69 13.754 10.888 13.1858H8.2V23.6072L8.4768 23.825ZM24.3008 8.45376C24.0389 8.28681 23.7341 8.19973 23.4235 8.20314C23.113 8.20655 22.8102 8.30031 22.552 8.47297L13.912 14.236L14.3792 14.705C14.5837 14.9094 14.8397 15.0545 15.12 15.1249C15.4003 15.1954 15.6945 15.1886 15.9712 15.1052L19.9472 13.9126C20.9066 13.6247 21.932 13.6444 22.8797 13.9688C23.8273 14.2932 24.6499 14.906 25.232 15.7215L31.424 24.3917H33.8V13.1858H32.6656C32.0568 13.1857 31.4607 13.0119 30.9472 12.6848L24.2992 8.45215L24.3008 8.45376ZM11.6896 25.2641L9.104 27.5277L17.328 33.9934L18.456 32.0212C18.6236 31.7275 18.6939 31.3882 18.6568 31.052C18.6198 30.7158 18.4772 30.4 18.2496 30.1499L13.928 25.3922C13.6461 25.0821 13.254 24.895 12.8357 24.8711C12.4175 24.8471 12.005 24.9882 11.6896 25.2641Z" fill="#1876F2"/>
</svg>
