<svg width="16" height="16" viewBox="0 0 16 16" fill="none" xmlns="http://www.w3.org/2000/svg">
<path fill-rule="evenodd" clip-rule="evenodd" d="M11.2457 10.305C12.8749 8.21267 12.7277 5.18556 10.8043 3.26211C8.72148 1.17931 5.3446 1.17931 3.2618 3.26211C1.17901 5.34491 1.17901 8.72179 3.2618 10.8046C5.18526 12.728 8.21237 12.8752 10.3047 11.246C10.3137 11.2562 10.3231 11.2662 10.3329 11.276L13.1613 14.1044C13.4216 14.3648 13.8438 14.3648 14.1041 14.1044C14.3645 13.8441 14.3645 13.422 14.1041 13.1616L11.2757 10.3332C11.2659 10.3234 11.2559 10.314 11.2457 10.305ZM9.86147 4.20492C11.4236 5.76702 11.4236 8.29968 9.86147 9.86177C8.29937 11.4239 5.76671 11.4239 4.20461 9.86177C2.64252 8.29968 2.64252 5.76702 4.20461 4.20492C5.76671 2.64282 8.29937 2.64282 9.86147 4.20492Z" fill="white"/>
</svg>
