<svg width="20" height="20" viewBox="0 0 20 20" fill="none" xmlns="http://www.w3.org/2000/svg">
<path d="M10.2583 12.981C10.0993 12.8851 9.90034 12.8851 9.74142 12.981L7.87845 14.1057C7.50018 14.3341 7.03331 13.9955 7.13289 13.565L7.62369 11.4432C7.66541 11.2628 7.60404 11.0741 7.46419 10.9528L5.81963 9.5262C5.48558 9.23642 5.66453 8.6875 6.10519 8.65028L8.27411 8.46706C8.45906 8.45144 8.62013 8.33465 8.69247 8.16373L9.53939 6.16284C9.71157 5.75603 10.2881 5.75603 10.4603 6.16284L11.3072 8.16373C11.3795 8.33465 11.5406 8.45144 11.7256 8.46706L13.8945 8.65028C14.3351 8.6875 14.5141 9.23642 14.18 9.5262L12.5355 10.9528C12.3956 11.0741 12.3343 11.2628 12.376 11.4432L12.8668 13.565C12.9664 13.9955 12.4995 14.3341 12.1212 14.1057L10.2583 12.981ZM17.4375 8.47593C17.7718 8.18633 17.5931 7.6372 17.1524 7.59981L12.6419 7.21714C12.4571 7.20147 12.2962 7.0848 12.2238 6.91405L10.4602 2.75284C10.2879 2.34633 9.71177 2.34633 9.53948 2.75284L7.77583 6.91405C7.70346 7.0848 7.54253 7.20147 7.35774 7.21714L2.84582 7.59994C2.40533 7.63731 2.22649 8.186 2.56036 8.47576L5.98083 11.4443C6.12069 11.5657 6.18201 11.7545 6.14018 11.9349L5.11698 16.3478C5.01716 16.7784 5.48405 17.1172 5.86243 16.8888L9.74147 14.5476C9.90037 14.4517 10.0993 14.4517 10.2582 14.5476L14.1353 16.8877C14.514 17.1162 14.9811 16.7767 14.8806 16.346L13.8517 11.9356C13.8096 11.7548 13.871 11.5656 14.0113 11.4441L17.4375 8.47593Z" fill="#EF7F00"/>
</svg>
