<svg width="20" height="20" viewBox="0 0 20 20" fill="none" xmlns="http://www.w3.org/2000/svg">
<path d="M14.9998 3.73318C13.6737 2.40709 11.8751 1.66211 9.99978 1.66211C8.12441 1.66211 6.32586 2.40709 4.99978 3.73318C3.6737 5.05926 2.92871 6.85781 2.92871 8.73318C2.92871 10.6085 3.6737 12.4071 4.99978 13.7332L9.39145 18.1332C9.46891 18.2113 9.56108 18.2733 9.66263 18.3156C9.76418 18.3579 9.8731 18.3797 9.98311 18.3797C10.0931 18.3797 10.202 18.3579 10.3036 18.3156C10.4051 18.2733 10.4973 18.2113 10.5748 18.1332L14.9998 13.6915C16.3203 12.3709 17.0622 10.5799 17.0622 8.71234C17.0622 6.8448 16.3203 5.05374 14.9998 3.73318ZM13.8081 12.4998L9.99978 16.3248L6.19145 12.4998C5.43907 11.7468 4.92684 10.7875 4.71952 9.74342C4.51221 8.69929 4.6191 7.61713 5.0267 6.63374C5.4343 5.65036 6.12429 4.80989 7.00947 4.21857C7.89465 3.62726 8.93527 3.31166 9.99978 3.31166C11.0643 3.31166 12.1049 3.62726 12.9901 4.21857C13.8753 4.80989 14.5653 5.65036 14.9729 6.63374C15.3805 7.61713 15.4874 8.69929 15.28 9.74342C15.0727 10.7875 14.5605 11.7468 13.8081 12.4998ZM7.49978 6.17484C6.82704 6.84965 6.44927 7.76365 6.44927 8.71651C6.44927 9.66937 6.82704 10.5834 7.49978 11.2582C7.99958 11.7588 8.6361 12.1007 9.32949 12.241C10.0229 12.3813 10.7422 12.3137 11.3973 12.0466C12.0524 11.7796 12.6141 11.3251 13.0118 10.7401C13.4096 10.155 13.6257 9.46557 13.6331 8.75818C13.6369 8.28585 13.5459 7.81756 13.3655 7.381C13.1852 6.94444 12.9191 6.54847 12.5831 6.21651C12.2528 5.87866 11.859 5.60946 11.4243 5.4244C10.9896 5.23934 10.5226 5.14207 10.0501 5.1382C9.57766 5.13433 9.10911 5.22392 8.67142 5.40183C8.23373 5.57974 7.83555 5.84245 7.49978 6.17484ZM11.4081 10.0748C11.0923 10.3955 10.675 10.5964 10.2274 10.6434C9.77982 10.6903 9.32983 10.5804 8.95437 10.3323C8.5789 10.0842 8.30128 9.71338 8.16895 9.28325C8.03663 8.85311 8.05782 8.39037 8.22891 7.97414C8.4 7.5579 8.71036 7.21402 9.10693 7.00129C9.5035 6.78856 9.96166 6.72018 10.4031 6.80786C10.8445 6.89553 11.2417 7.13381 11.5269 7.48195C11.812 7.8301 11.9674 8.26649 11.9664 8.71651C11.9543 9.2309 11.7385 9.71945 11.3664 10.0748H11.4081Z" fill="black"/>
</svg>
