<svg width="42" height="42" viewBox="0 0 42 42" fill="none" xmlns="http://www.w3.org/2000/svg">
<mask id="path-1-outside-1_29_2313" maskUnits="userSpaceOnUse" x="4.43164" y="2.5" width="33" height="37" fill="black">
<rect fill="white" x="4.43164" y="2.5" width="33" height="37"/>
<path d="M19.43 18.2664C18.8947 18.5754 18.463 19.0363 18.1896 19.5907C17.9162 20.1451 17.8134 20.7682 17.8941 21.381C17.9748 21.9939 18.2354 22.569 18.6429 23.0338C19.0505 23.4985 19.5868 23.832 20.1839 23.9919C20.781 24.1519 21.4121 24.1312 21.9974 23.9325C22.5827 23.7338 23.096 23.366 23.4723 22.8756C23.8486 22.3851 24.071 21.7941 24.1114 21.1773C24.1518 20.5605 24.0084 19.9455 23.6993 19.4102C23.2848 18.6924 22.6021 18.1687 21.8015 17.9542C21.0009 17.7397 20.1479 17.852 19.43 18.2664ZM33.4383 21.6573C33.2331 21.4228 33.0166 21.1877 32.7887 20.9519C32.9479 20.7847 33.1019 20.6175 33.2507 20.4506C36.0609 17.2931 37.247 14.1266 36.148 12.2229C35.0942 10.3976 31.9595 9.85369 28.0351 10.6167C27.6486 10.6924 27.2642 10.7777 26.8819 10.8727C26.8087 10.6204 26.7309 10.3695 26.6484 10.1202C25.317 6.10824 23.1665 3.49862 20.9684 3.5C18.8607 3.50096 16.8236 5.94491 15.524 9.72563C15.3962 10.0986 15.2779 10.4747 15.1692 10.8539C14.9136 10.7912 14.6569 10.7332 14.3992 10.6801C10.2587 9.82998 6.92377 10.3899 5.82692 12.2946C4.77517 14.1212 5.8751 17.1068 8.50182 20.1208C8.76232 20.4191 9.0302 20.7106 9.30545 20.9954C8.98097 21.3297 8.6737 21.6637 8.38732 21.9959C5.82427 24.9674 4.78723 27.9042 5.83728 29.7229C6.92174 31.6015 10.2097 32.2155 14.2117 31.428C14.5361 31.3637 14.8586 31.2914 15.1793 31.211C15.2968 31.6212 15.4257 32.0277 15.566 32.4308C16.8598 36.1356 18.8855 38.5009 20.9858 38.5001C23.1548 38.4988 25.3292 35.9576 26.6466 32.0973C26.7506 31.7922 26.8491 31.4754 26.9424 31.1492C27.3568 31.2523 27.7738 31.3438 28.1934 31.4236C32.0493 32.1532 35.1103 31.5794 36.1585 29.7594C37.2408 27.8794 36.1248 24.7263 33.4382 21.6573H33.4383ZM7.12261 13.0407C7.79786 11.8682 10.5233 11.4108 14.0982 12.1447C14.3267 12.1917 14.5591 12.2442 14.7954 12.3022C14.4464 13.8462 14.2001 15.4116 14.0582 16.9881C12.7683 17.8956 11.5384 18.8856 10.3764 19.9519C10.1204 19.6872 9.87119 19.416 9.62883 19.1384L9.62894 19.1385C7.37832 16.556 6.48877 14.1414 7.12261 13.0407ZM13.9243 23.0649C13.0308 22.3883 12.2004 21.6952 11.4468 20.9981C12.1999 20.3054 13.0308 19.6146 13.9224 18.9399C13.8904 19.6272 13.8745 20.3151 13.8748 21.0035C13.8753 21.6909 13.8918 22.378 13.9243 23.0649ZM13.9232 29.9609C12.4064 30.2982 10.8405 30.3535 9.3037 30.1239C8.88242 30.0911 8.47234 29.9723 8.0988 29.7747C7.72526 29.5772 7.3962 29.3051 7.13195 28.9754C6.49483 27.8717 7.32753 25.5139 9.51951 22.9725C9.79509 22.654 10.0797 22.3438 10.3734 22.042C11.5356 23.1139 12.7674 24.1077 14.0608 25.0171C14.2047 26.6138 14.4538 28.1992 14.8067 29.7631C14.5139 29.8363 14.2194 29.9023 13.9232 29.9609ZM26.3502 15.8921C25.7632 15.5222 25.169 15.1643 24.5676 14.8182C23.9758 14.4775 23.3768 14.1496 22.7707 13.8346C23.8085 13.3982 24.8285 13.0256 25.8133 12.7219C26.0455 13.7689 26.2247 14.827 26.3502 15.8921ZM16.938 10.2116C18.0514 6.97212 19.6989 4.99569 20.9692 4.99515C22.3221 4.9945 24.0799 7.1271 25.2293 10.591C25.3039 10.8168 25.3745 11.0439 25.441 11.2722C23.931 11.7406 22.4536 12.3084 21.0185 12.9718C19.5894 12.3006 18.1166 11.7265 16.6102 11.2534C16.7109 10.9035 16.8202 10.5563 16.938 10.2116ZM16.2374 12.7033C17.2646 13.0266 18.2748 13.4016 19.2643 13.8268C18.0383 14.4594 16.844 15.1486 15.6814 15.8942C15.8219 14.7777 16.0088 13.708 16.2374 12.7033ZM15.684 26.1094C16.2638 26.4806 16.852 26.838 17.4487 27.1817C18.0574 27.5322 18.6742 27.8679 19.2991 28.1889C18.3021 28.6288 17.2832 29.0172 16.2463 29.3526C16.0151 28.3339 15.8261 27.2454 15.684 26.1094ZM25.2314 31.6141C24.7659 33.0966 24.0314 34.4807 23.0648 35.6973L23.0647 35.6974C22.8258 36.0459 22.518 36.3417 22.1603 36.5665C21.8026 36.7914 21.4026 36.9405 20.985 37.0046C19.7106 37.0054 18.084 35.1059 16.9776 31.9376C16.8473 31.563 16.7274 31.185 16.618 30.8036C18.1315 30.3153 19.6103 29.7249 21.044 29.0366C22.4909 29.7044 23.9801 30.2764 25.5019 30.749C25.4188 31.0395 25.3286 31.3278 25.2314 31.6141ZM25.8654 29.2967C24.8692 28.9887 23.8343 28.6098 22.7816 28.1671C23.3751 27.8547 23.9728 27.5249 24.5749 27.1776C25.1927 26.8208 25.7947 26.4551 26.381 26.0805C26.2643 27.1607 26.0921 28.2342 25.8654 29.2967V29.2967ZM26.6464 20.997C26.6477 22.0598 26.6145 23.1217 26.5468 24.1828C25.6846 24.7663 24.7744 25.336 23.8273 25.8828C22.8842 26.4273 21.9497 26.9277 21.033 27.3806C20.0684 26.9183 19.1224 26.4202 18.1949 25.8861C17.2727 25.3553 16.3717 24.79 15.4918 24.1904C15.4113 23.1296 15.3708 22.0669 15.3702 21.0023L15.3704 21.0027C15.3697 19.9388 15.4093 18.8761 15.4893 17.8145C16.3513 17.2258 17.2549 16.6565 18.1892 16.1171C19.1277 15.5752 20.0739 15.0769 21.0149 14.6253C21.9676 15.0883 22.9032 15.5845 23.8216 16.1139C24.7431 16.6436 25.6467 17.2028 26.5323 17.7916C26.6084 18.8584 26.6464 19.9269 26.6465 20.997H26.6464ZM28.3206 12.0846C31.683 11.4305 34.2181 11.8705 34.8532 12.9704C35.5298 14.1423 34.5601 16.7303 32.134 19.4566L32.1339 19.4567C31.9999 19.6071 31.8608 19.7581 31.7167 19.9098C30.5345 18.8412 29.281 17.8543 27.9648 16.956C27.8319 15.3967 27.5949 13.848 27.2552 12.3204C27.6173 12.2313 27.9724 12.1527 28.3206 12.0846ZM28.0933 18.8828C28.9812 19.531 29.8348 20.2248 30.6507 20.9615C29.8384 21.7103 28.9875 22.4161 28.1015 23.076C28.1286 22.3831 28.1419 21.6899 28.1415 20.9963C28.1412 20.2916 28.1251 19.5871 28.0933 18.8828ZM34.8625 29.0131C34.2265 30.1176 31.7687 30.5782 28.4711 29.9543C28.0932 29.883 27.7055 29.7981 27.3078 29.6996C27.6393 28.1523 27.8659 26.5844 27.9859 25.0065C29.2999 24.0925 30.5495 23.0892 31.7258 22.0037C31.9316 22.2176 32.1274 22.4304 32.3131 22.6422V22.6421C33.365 23.7858 34.1973 25.1134 34.7685 26.5585C34.9512 26.9395 35.0538 27.3539 35.0699 27.7761C35.0861 28.1982 35.0155 28.6193 34.8625 29.0131Z"/>
</mask>
<path d="M19.43 18.2664C18.8947 18.5754 18.463 19.0363 18.1896 19.5907C17.9162 20.1451 17.8134 20.7682 17.8941 21.381C17.9748 21.9939 18.2354 22.569 18.6429 23.0338C19.0505 23.4985 19.5868 23.832 20.1839 23.9919C20.781 24.1519 21.4121 24.1312 21.9974 23.9325C22.5827 23.7338 23.096 23.366 23.4723 22.8756C23.8486 22.3851 24.071 21.7941 24.1114 21.1773C24.1518 20.5605 24.0084 19.9455 23.6993 19.4102C23.2848 18.6924 22.6021 18.1687 21.8015 17.9542C21.0009 17.7397 20.1479 17.852 19.43 18.2664ZM33.4383 21.6573C33.2331 21.4228 33.0166 21.1877 32.7887 20.9519C32.9479 20.7847 33.1019 20.6175 33.2507 20.4506C36.0609 17.2931 37.247 14.1266 36.148 12.2229C35.0942 10.3976 31.9595 9.85369 28.0351 10.6167C27.6486 10.6924 27.2642 10.7777 26.8819 10.8727C26.8087 10.6204 26.7309 10.3695 26.6484 10.1202C25.317 6.10824 23.1665 3.49862 20.9684 3.5C18.8607 3.50096 16.8236 5.94491 15.524 9.72563C15.3962 10.0986 15.2779 10.4747 15.1692 10.8539C14.9136 10.7912 14.6569 10.7332 14.3992 10.6801C10.2587 9.82998 6.92377 10.3899 5.82692 12.2946C4.77517 14.1212 5.8751 17.1068 8.50182 20.1208C8.76232 20.4191 9.0302 20.7106 9.30545 20.9954C8.98097 21.3297 8.6737 21.6637 8.38732 21.9959C5.82427 24.9674 4.78723 27.9042 5.83728 29.7229C6.92174 31.6015 10.2097 32.2155 14.2117 31.428C14.5361 31.3637 14.8586 31.2914 15.1793 31.211C15.2968 31.6212 15.4257 32.0277 15.566 32.4308C16.8598 36.1356 18.8855 38.5009 20.9858 38.5001C23.1548 38.4988 25.3292 35.9576 26.6466 32.0973C26.7506 31.7922 26.8491 31.4754 26.9424 31.1492C27.3568 31.2523 27.7738 31.3438 28.1934 31.4236C32.0493 32.1532 35.1103 31.5794 36.1585 29.7594C37.2408 27.8794 36.1248 24.7263 33.4382 21.6573H33.4383ZM7.12261 13.0407C7.79786 11.8682 10.5233 11.4108 14.0982 12.1447C14.3267 12.1917 14.5591 12.2442 14.7954 12.3022C14.4464 13.8462 14.2001 15.4116 14.0582 16.9881C12.7683 17.8956 11.5384 18.8856 10.3764 19.9519C10.1204 19.6872 9.87119 19.416 9.62883 19.1384L9.62894 19.1385C7.37832 16.556 6.48877 14.1414 7.12261 13.0407ZM13.9243 23.0649C13.0308 22.3883 12.2004 21.6952 11.4468 20.9981C12.1999 20.3054 13.0308 19.6146 13.9224 18.9399C13.8904 19.6272 13.8745 20.3151 13.8748 21.0035C13.8753 21.6909 13.8918 22.378 13.9243 23.0649ZM13.9232 29.9609C12.4064 30.2982 10.8405 30.3535 9.3037 30.1239C8.88242 30.0911 8.47234 29.9723 8.0988 29.7747C7.72526 29.5772 7.3962 29.3051 7.13195 28.9754C6.49483 27.8717 7.32753 25.5139 9.51951 22.9725C9.79509 22.654 10.0797 22.3438 10.3734 22.042C11.5356 23.1139 12.7674 24.1077 14.0608 25.0171C14.2047 26.6138 14.4538 28.1992 14.8067 29.7631C14.5139 29.8363 14.2194 29.9023 13.9232 29.9609ZM26.3502 15.8921C25.7632 15.5222 25.169 15.1643 24.5676 14.8182C23.9758 14.4775 23.3768 14.1496 22.7707 13.8346C23.8085 13.3982 24.8285 13.0256 25.8133 12.7219C26.0455 13.7689 26.2247 14.827 26.3502 15.8921ZM16.938 10.2116C18.0514 6.97212 19.6989 4.99569 20.9692 4.99515C22.3221 4.9945 24.0799 7.1271 25.2293 10.591C25.3039 10.8168 25.3745 11.0439 25.441 11.2722C23.931 11.7406 22.4536 12.3084 21.0185 12.9718C19.5894 12.3006 18.1166 11.7265 16.6102 11.2534C16.7109 10.9035 16.8202 10.5563 16.938 10.2116ZM16.2374 12.7033C17.2646 13.0266 18.2748 13.4016 19.2643 13.8268C18.0383 14.4594 16.844 15.1486 15.6814 15.8942C15.8219 14.7777 16.0088 13.708 16.2374 12.7033ZM15.684 26.1094C16.2638 26.4806 16.852 26.838 17.4487 27.1817C18.0574 27.5322 18.6742 27.8679 19.2991 28.1889C18.3021 28.6288 17.2832 29.0172 16.2463 29.3526C16.0151 28.3339 15.8261 27.2454 15.684 26.1094ZM25.2314 31.6141C24.7659 33.0966 24.0314 34.4807 23.0648 35.6973L23.0647 35.6974C22.8258 36.0459 22.518 36.3417 22.1603 36.5665C21.8026 36.7914 21.4026 36.9405 20.985 37.0046C19.7106 37.0054 18.084 35.1059 16.9776 31.9376C16.8473 31.563 16.7274 31.185 16.618 30.8036C18.1315 30.3153 19.6103 29.7249 21.044 29.0366C22.4909 29.7044 23.9801 30.2764 25.5019 30.749C25.4188 31.0395 25.3286 31.3278 25.2314 31.6141ZM25.8654 29.2967C24.8692 28.9887 23.8343 28.6098 22.7816 28.1671C23.3751 27.8547 23.9728 27.5249 24.5749 27.1776C25.1927 26.8208 25.7947 26.4551 26.381 26.0805C26.2643 27.1607 26.0921 28.2342 25.8654 29.2967V29.2967ZM26.6464 20.997C26.6477 22.0598 26.6145 23.1217 26.5468 24.1828C25.6846 24.7663 24.7744 25.336 23.8273 25.8828C22.8842 26.4273 21.9497 26.9277 21.033 27.3806C20.0684 26.9183 19.1224 26.4202 18.1949 25.8861C17.2727 25.3553 16.3717 24.79 15.4918 24.1904C15.4113 23.1296 15.3708 22.0669 15.3702 21.0023L15.3704 21.0027C15.3697 19.9388 15.4093 18.8761 15.4893 17.8145C16.3513 17.2258 17.2549 16.6565 18.1892 16.1171C19.1277 15.5752 20.0739 15.0769 21.0149 14.6253C21.9676 15.0883 22.9032 15.5845 23.8216 16.1139C24.7431 16.6436 25.6467 17.2028 26.5323 17.7916C26.6084 18.8584 26.6464 19.9269 26.6465 20.997H26.6464ZM28.3206 12.0846C31.683 11.4305 34.2181 11.8705 34.8532 12.9704C35.5298 14.1423 34.5601 16.7303 32.134 19.4566L32.1339 19.4567C31.9999 19.6071 31.8608 19.7581 31.7167 19.9098C30.5345 18.8412 29.281 17.8543 27.9648 16.956C27.8319 15.3967 27.5949 13.848 27.2552 12.3204C27.6173 12.2313 27.9724 12.1527 28.3206 12.0846ZM28.0933 18.8828C28.9812 19.531 29.8348 20.2248 30.6507 20.9615C29.8384 21.7103 28.9875 22.4161 28.1015 23.076C28.1286 22.3831 28.1419 21.6899 28.1415 20.9963C28.1412 20.2916 28.1251 19.5871 28.0933 18.8828ZM34.8625 29.0131C34.2265 30.1176 31.7687 30.5782 28.4711 29.9543C28.0932 29.883 27.7055 29.7981 27.3078 29.6996C27.6393 28.1523 27.8659 26.5844 27.9859 25.0065C29.2999 24.0925 30.5495 23.0892 31.7258 22.0037C31.9316 22.2176 32.1274 22.4304 32.3131 22.6422V22.6421C33.365 23.7858 34.1973 25.1134 34.7685 26.5585C34.9512 26.9395 35.0538 27.3539 35.0699 27.7761C35.0861 28.1982 35.0155 28.6193 34.8625 29.0131Z" fill="#1876F2"/>
<path d="M19.43 18.2664C18.8947 18.5754 18.463 19.0363 18.1896 19.5907C17.9162 20.1451 17.8134 20.7682 17.8941 21.381C17.9748 21.9939 18.2354 22.569 18.6429 23.0338C19.0505 23.4985 19.5868 23.832 20.1839 23.9919C20.781 24.1519 21.4121 24.1312 21.9974 23.9325C22.5827 23.7338 23.096 23.366 23.4723 22.8756C23.8486 22.3851 24.071 21.7941 24.1114 21.1773C24.1518 20.5605 24.0084 19.9455 23.6993 19.4102C23.2848 18.6924 22.6021 18.1687 21.8015 17.9542C21.0009 17.7397 20.1479 17.852 19.43 18.2664ZM33.4383 21.6573C33.2331 21.4228 33.0166 21.1877 32.7887 20.9519C32.9479 20.7847 33.1019 20.6175 33.2507 20.4506C36.0609 17.2931 37.247 14.1266 36.148 12.2229C35.0942 10.3976 31.9595 9.85369 28.0351 10.6167C27.6486 10.6924 27.2642 10.7777 26.8819 10.8727C26.8087 10.6204 26.7309 10.3695 26.6484 10.1202C25.317 6.10824 23.1665 3.49862 20.9684 3.5C18.8607 3.50096 16.8236 5.94491 15.524 9.72563C15.3962 10.0986 15.2779 10.4747 15.1692 10.8539C14.9136 10.7912 14.6569 10.7332 14.3992 10.6801C10.2587 9.82998 6.92377 10.3899 5.82692 12.2946C4.77517 14.1212 5.8751 17.1068 8.50182 20.1208C8.76232 20.4191 9.0302 20.7106 9.30545 20.9954C8.98097 21.3297 8.6737 21.6637 8.38732 21.9959C5.82427 24.9674 4.78723 27.9042 5.83728 29.7229C6.92174 31.6015 10.2097 32.2155 14.2117 31.428C14.5361 31.3637 14.8586 31.2914 15.1793 31.211C15.2968 31.6212 15.4257 32.0277 15.566 32.4308C16.8598 36.1356 18.8855 38.5009 20.9858 38.5001C23.1548 38.4988 25.3292 35.9576 26.6466 32.0973C26.7506 31.7922 26.8491 31.4754 26.9424 31.1492C27.3568 31.2523 27.7738 31.3438 28.1934 31.4236C32.0493 32.1532 35.1103 31.5794 36.1585 29.7594C37.2408 27.8794 36.1248 24.7263 33.4382 21.6573H33.4383ZM7.12261 13.0407C7.79786 11.8682 10.5233 11.4108 14.0982 12.1447C14.3267 12.1917 14.5591 12.2442 14.7954 12.3022C14.4464 13.8462 14.2001 15.4116 14.0582 16.9881C12.7683 17.8956 11.5384 18.8856 10.3764 19.9519C10.1204 19.6872 9.87119 19.416 9.62883 19.1384L9.62894 19.1385C7.37832 16.556 6.48877 14.1414 7.12261 13.0407ZM13.9243 23.0649C13.0308 22.3883 12.2004 21.6952 11.4468 20.9981C12.1999 20.3054 13.0308 19.6146 13.9224 18.9399C13.8904 19.6272 13.8745 20.3151 13.8748 21.0035C13.8753 21.6909 13.8918 22.378 13.9243 23.0649ZM13.9232 29.9609C12.4064 30.2982 10.8405 30.3535 9.3037 30.1239C8.88242 30.0911 8.47234 29.9723 8.0988 29.7747C7.72526 29.5772 7.3962 29.3051 7.13195 28.9754C6.49483 27.8717 7.32753 25.5139 9.51951 22.9725C9.79509 22.654 10.0797 22.3438 10.3734 22.042C11.5356 23.1139 12.7674 24.1077 14.0608 25.0171C14.2047 26.6138 14.4538 28.1992 14.8067 29.7631C14.5139 29.8363 14.2194 29.9023 13.9232 29.9609ZM26.3502 15.8921C25.7632 15.5222 25.169 15.1643 24.5676 14.8182C23.9758 14.4775 23.3768 14.1496 22.7707 13.8346C23.8085 13.3982 24.8285 13.0256 25.8133 12.7219C26.0455 13.7689 26.2247 14.827 26.3502 15.8921ZM16.938 10.2116C18.0514 6.97212 19.6989 4.99569 20.9692 4.99515C22.3221 4.9945 24.0799 7.1271 25.2293 10.591C25.3039 10.8168 25.3745 11.0439 25.441 11.2722C23.931 11.7406 22.4536 12.3084 21.0185 12.9718C19.5894 12.3006 18.1166 11.7265 16.6102 11.2534C16.7109 10.9035 16.8202 10.5563 16.938 10.2116ZM16.2374 12.7033C17.2646 13.0266 18.2748 13.4016 19.2643 13.8268C18.0383 14.4594 16.844 15.1486 15.6814 15.8942C15.8219 14.7777 16.0088 13.708 16.2374 12.7033ZM15.684 26.1094C16.2638 26.4806 16.852 26.838 17.4487 27.1817C18.0574 27.5322 18.6742 27.8679 19.2991 28.1889C18.3021 28.6288 17.2832 29.0172 16.2463 29.3526C16.0151 28.3339 15.8261 27.2454 15.684 26.1094ZM25.2314 31.6141C24.7659 33.0966 24.0314 34.4807 23.0648 35.6973L23.0647 35.6974C22.8258 36.0459 22.518 36.3417 22.1603 36.5665C21.8026 36.7914 21.4026 36.9405 20.985 37.0046C19.7106 37.0054 18.084 35.1059 16.9776 31.9376C16.8473 31.563 16.7274 31.185 16.618 30.8036C18.1315 30.3153 19.6103 29.7249 21.044 29.0366C22.4909 29.7044 23.9801 30.2764 25.5019 30.749C25.4188 31.0395 25.3286 31.3278 25.2314 31.6141ZM25.8654 29.2967C24.8692 28.9887 23.8343 28.6098 22.7816 28.1671C23.3751 27.8547 23.9728 27.5249 24.5749 27.1776C25.1927 26.8208 25.7947 26.4551 26.381 26.0805C26.2643 27.1607 26.0921 28.2342 25.8654 29.2967V29.2967ZM26.6464 20.997C26.6477 22.0598 26.6145 23.1217 26.5468 24.1828C25.6846 24.7663 24.7744 25.336 23.8273 25.8828C22.8842 26.4273 21.9497 26.9277 21.033 27.3806C20.0684 26.9183 19.1224 26.4202 18.1949 25.8861C17.2727 25.3553 16.3717 24.79 15.4918 24.1904C15.4113 23.1296 15.3708 22.0669 15.3702 21.0023L15.3704 21.0027C15.3697 19.9388 15.4093 18.8761 15.4893 17.8145C16.3513 17.2258 17.2549 16.6565 18.1892 16.1171C19.1277 15.5752 20.0739 15.0769 21.0149 14.6253C21.9676 15.0883 22.9032 15.5845 23.8216 16.1139C24.7431 16.6436 25.6467 17.2028 26.5323 17.7916C26.6084 18.8584 26.6464 19.9269 26.6465 20.997H26.6464ZM28.3206 12.0846C31.683 11.4305 34.2181 11.8705 34.8532 12.9704C35.5298 14.1423 34.5601 16.7303 32.134 19.4566L32.1339 19.4567C31.9999 19.6071 31.8608 19.7581 31.7167 19.9098C30.5345 18.8412 29.281 17.8543 27.9648 16.956C27.8319 15.3967 27.5949 13.848 27.2552 12.3204C27.6173 12.2313 27.9724 12.1527 28.3206 12.0846ZM28.0933 18.8828C28.9812 19.531 29.8348 20.2248 30.6507 20.9615C29.8384 21.7103 28.9875 22.4161 28.1015 23.076C28.1286 22.3831 28.1419 21.6899 28.1415 20.9963C28.1412 20.2916 28.1251 19.5871 28.0933 18.8828ZM34.8625 29.0131C34.2265 30.1176 31.7687 30.5782 28.4711 29.9543C28.0932 29.883 27.7055 29.7981 27.3078 29.6996C27.6393 28.1523 27.8659 26.5844 27.9859 25.0065C29.2999 24.0925 30.5495 23.0892 31.7258 22.0037C31.9316 22.2176 32.1274 22.4304 32.3131 22.6422V22.6421C33.365 23.7858 34.1973 25.1134 34.7685 26.5585C34.9512 26.9395 35.0538 27.3539 35.0699 27.7761C35.0861 28.1982 35.0155 28.6193 34.8625 29.0131Z" stroke="#1876F2" stroke-width="0.6" mask="url(#path-1-outside-1_29_2313)"/>
</svg>
