<svg width="16" height="16" viewBox="0 0 16 16" fill="none" xmlns="http://www.w3.org/2000/svg">
<path fill-rule="evenodd" clip-rule="evenodd" d="M10.6663 4.66667C10.6663 6.13943 9.47243 7.33333 7.99967 7.33333C6.52692 7.33333 5.33301 6.13943 5.33301 4.66667C5.33301 3.19391 6.52692 2 7.99967 2C9.47243 2 10.6663 3.19391 10.6663 4.66667ZM9.33301 4.66667C9.33301 5.40305 8.73605 6 7.99967 6C7.26329 6 6.66634 5.40305 6.66634 4.66667C6.66634 3.93029 7.26329 3.33333 7.99967 3.33333C8.73605 3.33333 9.33301 3.93029 9.33301 4.66667Z" fill="#333333"/>
<path d="M11.333 10C11.333 9.63181 11.0345 9.33333 10.6663 9.33333H5.33301C4.96482 9.33333 4.66634 9.63181 4.66634 10V14H3.33301V10C3.33301 8.89543 4.22844 8 5.33301 8H10.6663C11.7709 8 12.6663 8.89543 12.6663 10V14H11.333V10Z" fill="#333333"/>
</svg>
