<svg width="43" height="42" viewBox="0 0 43 42" fill="none" xmlns="http://www.w3.org/2000/svg">
<path d="M9.25 29.75C9.25 30.6783 9.61875 31.5685 10.2751 32.2249C10.9315 32.8813 11.8217 33.25 12.75 33.25C13.6783 33.25 14.5685 32.8813 15.2249 32.2249C15.8813 31.5685 16.25 30.6783 16.25 29.75C16.25 28.8217 15.8813 27.9315 15.2249 27.2751C14.5685 26.6187 13.6783 26.25 12.75 26.25C11.8217 26.25 10.9315 26.6187 10.2751 27.2751C9.61875 27.9315 9.25 28.8217 9.25 29.75ZM26.75 29.75C26.75 30.6783 27.1187 31.5685 27.7751 32.2249C28.4315 32.8813 29.3217 33.25 30.25 33.25C31.1783 33.25 32.0685 32.8813 32.7249 32.2249C33.3813 31.5685 33.75 30.6783 33.75 29.75C33.75 28.8217 33.3813 27.9315 32.7249 27.2751C32.0685 26.6187 31.1783 26.25 30.25 26.25C29.3217 26.25 28.4315 26.6187 27.7751 27.2751C27.1187 27.9315 26.75 28.8217 26.75 29.75Z" stroke="#1876F2" stroke-width="3" stroke-linecap="round" stroke-linejoin="round"/>
<path d="M9.25 29.75H5.75V22.75M4 8.75H23.25V29.75M16.25 29.75H26.75M33.75 29.75H37.25V19.25M37.25 19.25H23.25M37.25 19.25L32 10.5H23.25M5.75 15.75H12.75" stroke="#1876F2" stroke-width="3" stroke-linecap="round" stroke-linejoin="round"/>
</svg>
