<svg width="42" height="42" viewBox="0 0 42 42" fill="none" xmlns="http://www.w3.org/2000/svg">
<path d="M25.9 15.75C25.583 15.2 25.1224 14.7467 24.5675 14.4384C24.0126 14.1302 23.3844 13.9786 22.75 14H19.25C18.3217 14 17.4315 14.3687 16.7751 15.0251C16.1187 15.6815 15.75 16.5717 15.75 17.5C15.75 18.4282 16.1187 19.3184 16.7751 19.9748C17.4315 20.6312 18.3217 21 19.25 21H22.75C23.6783 21 24.5685 21.3687 25.2249 22.0251C25.8813 22.6815 26.25 23.5717 26.25 24.5C26.25 25.4282 25.8813 26.3184 25.2249 26.9748C24.5685 27.6312 23.6783 28 22.75 28H19.25C18.6156 28.0213 17.9874 27.8697 17.4325 27.5615C16.8776 27.2532 16.417 26.7999 16.1 26.25M21 10.5V14M21 28V31.5M36.75 21C36.75 29.6985 29.6985 36.75 21 36.75C12.3015 36.75 5.25 29.6985 5.25 21C5.25 12.3015 12.3015 5.25 21 5.25C29.6985 5.25 36.75 12.3015 36.75 21Z" stroke="#1876F2" stroke-width="3" stroke-linecap="round" stroke-linejoin="round"/>
</svg>
