<svg width="43" height="42" viewBox="0 0 43 42" fill="none" xmlns="http://www.w3.org/2000/svg">
<path d="M16.2499 21L19.7499 24.5L26.7499 17.5M21.5 5.25C25.5877 8.86651 30.9228 10.7495 36.375 10.5C37.1687 13.2003 37.4116 16.0326 37.0892 18.8286C36.7667 21.6246 35.8855 24.3272 34.4979 26.7759C33.1103 29.2246 31.2446 31.3694 29.0118 33.0828C26.7789 34.7963 24.2243 36.0434 21.5 36.75C18.7756 36.0434 16.221 34.7963 13.9882 33.0828C11.7553 31.3694 9.8896 29.2246 8.502 26.7759C7.1144 24.3272 6.23319 21.6246 5.91074 18.8286C5.58828 16.0326 5.83117 13.2003 6.62495 10.5C12.0771 10.7495 17.4122 8.86651 21.5 5.25Z" stroke="#1876F2" stroke-width="3" stroke-linecap="round" stroke-linejoin="round"/>
</svg>
